<svg width="70" height="70" viewBox="0 0 70 70" fill="none" xmlns="http://www.w3.org/2000/svg">
<path d="M61.5934 30.5483C62.8343 32.3322 63.5424 34.4274 63.6363 36.5928C65.7585 37.3381 67.5472 38.8032 68.6866 40.7296C69.826 42.656 70.2428 44.9198 69.8634 47.1214C69.4841 49.323 68.3331 51.3209 66.6134 52.7624C64.8938 54.204 62.7161 54.9964 60.4649 55H12.7348C9.37957 55.0045 6.15918 53.69 3.77853 51.3442L24.0288 35.4416C24.7713 35.8351 25.6198 36.0582 26.5235 36.0582C27.3054 36.0594 28.0777 35.8883 28.7848 35.5573L38.4369 43.9359C38.1807 44.7385 38.1223 45.5903 38.2666 46.4199C38.411 47.2495 38.7538 48.0326 39.2665 48.7035C39.7791 49.3744 40.4465 49.9134 41.2126 50.2754C41.9787 50.6373 42.8212 50.8116 43.6693 50.7835C44.5174 50.7555 45.3463 50.526 46.0864 50.1142C46.8265 49.7025 47.4563 49.1205 47.9228 48.4173C48.3892 47.714 48.6788 46.91 48.7672 46.0727C48.8555 45.2354 48.7401 44.3893 48.4305 43.6055L61.5934 30.5483ZM58.5938 27.5723L45.4331 40.6295C44.8154 40.3893 44.1576 40.2665 43.4942 40.2675C42.7123 40.2664 41.94 40.4375 41.2328 40.7684L31.5808 32.3898C31.829 31.6119 31.8915 30.7872 31.7632 29.9812C31.6349 29.1751 31.3194 28.4097 30.8416 27.7454C30.3638 27.0811 29.7369 26.5362 29.0103 26.1538C28.2837 25.7713 27.4774 25.5618 26.6551 25.5417C25.8328 25.5217 25.0171 25.6917 24.2724 26.0382C23.5277 26.3848 22.8745 26.8985 22.3644 27.5387C21.8543 28.1789 21.5013 28.928 21.3333 29.7268C21.1652 30.5257 21.1868 31.3523 21.3962 32.1415L1.29657 47.9242C0.341442 45.9887 -0.0985415 43.8429 0.0184907 41.691C0.135523 39.5392 0.805677 37.4528 1.96517 35.6305C3.12467 33.8083 4.73492 32.3107 6.64268 31.2804C8.55045 30.2501 10.6922 29.7213 12.8642 29.7443C13.3503 25.8981 15.159 22.336 17.985 19.6593C20.811 16.9826 24.4813 15.3552 28.3764 15.0517C32.2715 14.7482 36.1529 15.7873 39.3654 17.9936C42.5779 20.1998 44.9248 23.4381 46.0101 27.1619C47.8149 26.0937 49.878 25.5314 51.9795 25.535C54.4339 25.535 56.7122 26.2885 58.5938 27.5723Z" fill="#2196F3"/>
</svg>
