<svg width="178" height="32" viewBox="0 0 178 32" fill="none" xmlns="http://www.w3.org/2000/svg">
<path d="M35.9251 8.93379C29.4588 8.93379 24.4062 13.8739 24.4062 20.4872C24.4062 27.1006 29.3311 31.9984 35.9251 31.9984C42.5191 31.9984 47.5296 27.016 47.5296 20.4449C47.5296 13.9162 42.6047 8.93379 35.9251 8.93379ZM35.9687 27.2323C32.2864 27.2323 29.588 24.3541 29.588 20.4888C29.588 16.5797 32.2427 13.7031 35.9251 13.7031C39.6511 13.7031 42.3478 16.6236 42.3478 20.4888C42.3478 24.3541 39.6511 27.2323 35.9687 27.2323ZM48.9418 13.9601H52.1539V31.5707H57.2921V9.36308H48.9418V13.9601ZM11.4752 13.7015C14.1736 13.7015 16.3145 15.3764 17.1272 17.8676H22.5659C21.5803 12.5421 17.2128 8.93379 11.5188 8.93379C5.05252 8.93379 0 13.8739 0 20.4888C0 27.1038 4.92488 32 11.5188 32C17.0852 32 21.5383 28.3917 22.5239 23.0223H17.1272C16.3565 25.5135 14.2156 27.2323 11.5172 27.2323C7.79126 27.2323 5.18017 24.3541 5.18017 20.4888C5.18178 16.5797 7.75086 13.7015 11.4752 13.7015ZM146.57 18.3408L142.802 17.783C141.004 17.5261 139.719 16.9244 139.719 15.5065C139.719 13.9601 141.39 13.1877 143.658 13.1877C146.142 13.1877 147.727 14.2609 148.069 16.022H153.036C152.479 11.5551 149.053 8.93541 143.788 8.93541C138.349 8.93541 134.752 11.7274 134.752 15.6788C134.752 19.4579 137.108 21.6499 141.86 22.3361L145.628 22.8938C147.47 23.1508 148.498 23.8825 148.498 25.2566C148.498 27.0176 146.699 27.7478 144.216 27.7478C141.175 27.7478 139.462 26.5022 139.205 24.6126H134.153C134.625 28.9511 138.006 32 144.172 32C149.782 32 153.507 29.4226 153.507 24.998C153.507 21.0466 150.81 18.9847 146.57 18.3408ZM54.723 0.214645C52.839 0.214645 51.4252 1.5887 51.4252 3.47823C51.4252 5.36775 52.8374 6.74181 54.723 6.74181C56.607 6.74181 58.0208 5.36775 58.0208 3.47823C58.0208 1.5887 56.607 0.214645 54.723 0.214645ZM130.128 16.9667C130.128 12.1567 127.216 8.93541 121.05 8.93541C115.227 8.93541 111.973 11.8998 111.33 16.4529H116.426C116.683 14.6918 118.053 13.2316 120.965 13.2316C123.578 13.2316 124.862 14.391 124.862 15.8089C124.862 17.6562 122.506 18.1278 119.595 18.4286C115.655 18.8579 110.774 20.2319 110.774 25.3867C110.774 29.382 113.729 31.9577 118.439 31.9577C122.122 31.9577 124.434 30.4113 125.591 27.9624C125.762 30.1528 127.389 31.5707 129.659 31.5707H132.657V26.9754H130.13V16.9667H130.128ZM125.075 22.5507C125.075 25.5151 122.506 27.7055 119.38 27.7055C117.452 27.7055 115.825 26.8892 115.825 25.172C115.825 22.9817 118.438 22.38 120.836 22.1231C123.148 21.9084 124.432 21.393 125.075 20.4043V22.5507ZM97.7995 8.93379C94.9299 8.93379 92.5321 10.1371 90.8194 12.1551V0H85.6812V31.5707H90.7337V28.6502C92.4464 30.7544 94.8879 32 97.7995 32C103.965 32 108.633 27.1038 108.633 20.4888C108.633 13.8739 103.88 8.93379 97.7995 8.93379ZM97.0288 27.2323C93.3464 27.2323 90.6481 24.3541 90.6481 20.4888C90.6481 16.6236 93.3884 13.7031 97.0708 13.7031C100.797 13.7031 103.408 16.5813 103.408 20.4888C103.408 24.3541 100.711 27.2323 97.0288 27.2323ZM73.3916 8.93379C70.0518 8.93379 67.8673 10.3078 66.5828 12.2413V9.36308H61.4866V31.5691H66.6248V19.5002C66.6248 16.1065 68.7657 13.7015 71.9342 13.7015C74.8895 13.7015 76.7298 15.8057 76.7298 18.8562V31.5707H81.868V18.4709C81.8696 12.8852 79.0016 8.93379 73.3916 8.93379ZM178 19.7587C178 13.4023 173.376 8.93541 167.166 8.93541C160.572 8.93541 155.733 13.9178 155.733 20.4888C155.733 27.4046 160.915 32 167.252 32C172.605 32 176.801 28.821 177.871 24.3118H172.518C171.747 26.2875 169.863 27.4046 167.336 27.4046C164.038 27.4046 161.555 25.3428 160.999 21.7344H177.998V19.7587H178ZM161.299 18.0399C162.114 14.9471 164.426 13.4446 167.081 13.4446C169.992 13.4446 172.219 15.1195 172.733 18.0399H161.299Z" fill="#0052FF"/>
</svg>
