<svg width="178" height="44" viewBox="0 0 178 44" fill="none" xmlns="http://www.w3.org/2000/svg">
<path d="M13.7481 34.5471L13.4344 34.6757C11.5602 35.3012 8.75237 36.2372 6.31183 37.4267C6.18343 37.4878 6.06328 37.6747 6.06328 37.6747C5.99725 37.7987 5.9303 37.9273 5.87756 38.0523C5.61617 38.6769 5.19107 39.6174 5.06267 40.0524L4.94344 40.3716V40.4914L4.99664 40.558H5.06267L5.36396 40.434C6.06328 40.1144 6.93183 39.6174 7.81275 39.1825H7.87099C9.48351 38.4298 11.0871 37.658 12.6814 36.8673C12.6814 36.8673 12.8667 36.7433 12.9956 36.5569L13.8682 34.8002V34.6762C13.8682 34.5471 13.8017 34.4897 13.7485 34.5471H13.7481ZM6.75023 31.797C6.87863 31.5444 7.43259 30.4798 7.56512 30.2309V30.1689C11.374 22.9745 16.0029 16.2154 21.2999 10.0189L21.4329 9.83018C21.5003 9.76588 21.5003 9.70434 21.4329 9.64326C21.3669 9.57988 21.2999 9.51558 21.2472 9.57988H20.9991C17.491 10.0828 13.9343 10.7078 10.4395 11.5823C10.0589 11.7086 9.87313 11.8978 9.80663 11.9552C7.18404 15.087 4.74396 18.4024 2.42678 21.785C2.50245 21.9714 2.50245 22.348 2.50245 22.348C2.50245 22.348 3.0564 26.7271 3.87588 29.9824C1.87328 35.9272 0 43.8097 0 43.8097V43.9382C0 44.0002 0.0664934 44.0002 0.11923 44.0002H1.30694C1.36931 44.0002 1.43534 43.9387 1.50183 43.8762L1.55503 43.6236C2.74228 40.3716 4.12397 37.1158 5.61663 33.9836C5.99725 33.2919 6.75023 31.797 6.75023 31.797Z" fill="#53C38E"/>
<path d="M23.1216 11.3347V11.0839C23.1216 11.0196 23.0542 10.9548 23.0014 10.897C22.9354 10.897 22.8685 10.897 22.8061 10.9548L22.6827 11.1436C16.4241 18.3413 11.2459 26.35 7.13152 34.9254L6.99854 35.1105V35.3016C7.05127 35.3594 7.05127 35.3594 7.13152 35.3594H7.18426L7.3709 35.3016C10.8652 33.8604 14.4353 32.6094 17.992 31.5448C18.1781 31.4823 18.3726 31.3583 18.4927 31.1723C20.0606 28.1687 23.6746 22.2845 23.6746 22.2845C23.8076 22.0958 23.7503 21.9079 23.7503 21.9079C23.7503 21.9079 23.1216 14.8981 23.1216 11.3347Z" fill="#53C38E"/>
<path d="M31.121 1.1948C30.2525 0.44068 28.9231 0.0659161 26.931 0.00621111C25.1903 -0.0580866 23.0547 0.380975 20.6187 1.1305C20.2463 1.25956 19.9941 1.44556 19.6805 1.69173C17.1863 4.00966 14.8163 6.51406 12.562 9.01753L12.3676 9.204C12.3098 9.26829 12.3098 9.328 12.3676 9.3923C12.429 9.45522 12.4955 9.51492 12.562 9.45522L12.8105 9.39184C16.5044 8.57847 20.1803 8.01495 23.8081 7.63605C24.0562 7.63605 24.3084 7.70035 24.49 7.82435C24.6899 8.01495 24.7422 8.20371 24.7422 8.45034C24.6899 12.0832 24.8092 15.7114 25.115 19.2156V19.4659C25.115 19.527 25.1903 19.5913 25.2425 19.5913H25.3099C25.376 19.5913 25.4292 19.5913 25.4292 19.527L25.5576 19.3401C27.6166 16.4017 29.8058 13.5822 32.1794 10.8959C32.427 10.5813 32.494 10.3926 32.56 10.14C33.3002 5.57118 32.1794 2.07109 31.121 1.1948ZM57.3025 19.4756C56.1148 18.2897 54.8844 17.9094 53.2854 17.9094C51.3447 17.9094 49.5067 18.7637 48.5941 20.1585V18.1129H46.1453V34.8748H48.5941V24.5872C48.5941 22.0309 50.1487 20.0905 52.598 20.0905C53.8912 20.0905 54.5786 20.3955 55.4948 21.3163L57.3025 19.4756ZM70.4485 26.4955C70.4485 23.9052 70.1114 21.5537 68.4023 19.8177C67.2504 18.6594 65.6509 17.9099 63.6047 17.9099C61.5677 17.9099 59.9687 18.6594 58.8126 19.8172C57.1159 21.5533 56.7797 23.9047 56.7797 26.495C56.7797 29.0858 57.1159 31.4322 58.8121 33.1714C59.9687 34.3288 61.5682 35.0792 63.6043 35.0792C65.6509 35.0792 67.2504 34.3292 68.4023 33.1714C70.1114 31.4326 70.4485 29.0858 70.4485 26.4955ZM67.9988 26.4955C67.9988 28.3679 67.8924 30.4434 66.674 31.6728C65.8907 32.4568 64.8007 32.9005 63.6047 32.9005C62.4184 32.9005 61.3595 32.4568 60.5887 31.6728C59.3569 30.4434 59.2294 28.3679 59.2294 26.4955C59.2294 24.6194 59.3569 22.5435 60.5887 21.3163C61.3591 20.531 62.4184 20.0901 63.6047 20.0901C64.8007 20.0901 65.8907 20.531 66.674 21.3163C67.8924 22.5435 67.9992 24.6194 67.9992 26.4955H67.9988ZM87.3323 26.4955C87.3323 23.8694 86.9962 21.077 85.2995 19.3782C84.4176 18.4932 82.9126 17.9099 81.2159 17.9099C79.3779 17.9099 77.8412 18.3177 76.4806 20.0547V10.6236H74.0314V34.8748H76.4806V32.8655C77.8412 34.6351 79.3779 35.0792 81.2159 35.0792C82.9126 35.0792 84.4176 34.4978 85.2995 33.6109C86.9962 31.9116 87.3323 29.1165 87.3323 26.4955ZM84.8831 26.4955C84.8831 29.7646 84.3383 32.9005 80.7023 32.9005C77.0703 32.9005 76.4806 29.7646 76.4806 26.4955C76.4806 23.2246 77.0703 20.0905 80.7023 20.0905C84.3383 20.0905 84.8831 23.2246 84.8831 26.4955ZM93.3741 34.8748V18.1129H90.9248V34.8748H93.3741ZM93.5387 13.3452V10.5878H90.7969V13.3452H93.5387ZM111.052 34.8748V24.144C111.052 22.2013 110.506 20.6338 109.31 19.4756C108.287 18.4528 106.831 17.9094 105.023 17.9094C103.163 17.9094 101.528 18.5905 100.332 19.9532V18.1129H97.8833V34.8748H100.332V24.5519C100.332 21.6226 101.963 20.0905 104.479 20.0905C107.003 20.0905 108.602 21.5868 108.602 24.5519V34.8748H111.052ZM128.512 34.8748V24.1082C128.512 20.327 126.271 17.9099 122.492 17.9099C120.623 17.9099 119.019 18.5602 117.802 19.9527V10.6236H115.351V34.8748H117.802V24.5174C117.802 21.6226 119.466 20.0901 121.983 20.0901C124.494 20.0901 126.062 21.5868 126.062 24.5174V34.8748H128.512ZM145.613 26.4955C145.613 23.9052 145.268 21.5537 143.568 19.8177C142.401 18.6594 140.811 17.9099 138.765 17.9099C136.733 17.9099 135.13 18.6594 133.969 19.8172C132.281 21.5533 131.931 23.9047 131.931 26.495C131.931 29.0858 132.281 31.4322 133.969 33.1714C135.13 34.3288 136.733 35.0792 138.765 35.0792C140.811 35.0792 142.401 34.3292 143.568 33.1714C145.268 31.4326 145.613 29.0858 145.613 26.4955ZM143.164 26.4955C143.164 28.3679 143.058 30.4434 141.835 31.6728C141.042 32.4568 139.952 32.9005 138.765 32.9005C137.578 32.9005 136.524 32.4568 135.74 31.6728C134.509 30.4434 134.38 28.3679 134.38 26.4955C134.38 24.6194 134.509 22.5435 135.74 21.3163C136.524 20.531 137.578 20.0901 138.765 20.0901C139.952 20.0901 141.042 20.531 141.835 21.3163C143.058 22.5435 143.164 24.6194 143.164 26.4955ZM161.983 26.4955C161.983 23.9052 161.647 21.5537 159.938 19.8177C158.794 18.6594 157.196 17.9099 155.15 17.9099C153.112 17.9099 151.504 18.6594 150.362 19.8172C148.651 21.5533 148.315 23.9047 148.315 26.495C148.315 29.0858 148.651 31.4322 150.362 33.1714C151.505 34.3288 153.112 35.0792 155.15 35.0792C157.196 35.0792 158.794 34.3292 159.938 33.1714C161.647 31.4326 161.983 29.0858 161.983 26.4955H161.983ZM159.534 26.4955C159.534 28.3679 159.437 30.4434 158.21 31.6728C157.435 32.4568 156.344 32.9005 155.15 32.9005C153.954 32.9005 152.907 32.4568 152.125 31.6728C150.907 30.4434 150.764 28.3679 150.764 26.4955C150.764 24.6194 150.907 22.5435 152.125 21.3163C152.908 20.531 153.954 20.0901 155.15 20.0901C156.344 20.0901 157.435 20.531 158.21 21.3163C159.437 22.5435 159.534 24.6194 159.534 26.4955ZM178 34.8748V10.6236H175.55V20.0547C174.186 18.3177 172.653 17.9099 170.815 17.9099C169.115 17.9099 167.613 18.4932 166.732 19.3782C165.03 21.0775 164.694 23.8698 164.694 26.4955C164.694 29.1165 165.031 31.9116 166.732 33.6109C167.613 34.4978 169.115 35.0792 170.815 35.0792C172.653 35.0792 174.221 34.6351 175.582 32.8655V34.8748H178ZM175.55 26.4955C175.55 29.7646 175.006 32.9005 171.356 32.9005C167.71 32.9005 167.144 29.7646 167.144 26.4955C167.144 23.2246 167.711 20.0905 171.356 20.0905C175.006 20.0905 175.55 23.2246 175.55 26.4955Z" fill="#53C38E"/>
</svg>
