<svg width="178" height="40" viewBox="0 0 178 40" fill="none" xmlns="http://www.w3.org/2000/svg">
<path fill-rule="evenodd" clip-rule="evenodd" d="M54.6214 2.67251L54.0867 8.63725C52.984 8.14087 51.9251 7.7566 50.9147 7.5079C49.9469 7.26373 48.9566 7.13688 47.9624 7.12975C46.5058 7.12975 45.3688 7.37846 44.5525 7.87382C43.7362 8.3702 43.3271 9.05617 43.3271 9.9256C43.3271 10.5331 43.5364 11.0712 43.9503 11.5207C44.3699 11.9692 44.9987 12.3545 45.8379 12.6501L47.0348 13.0578C50.125 14.128 52.1782 15.0739 53.1933 15.8893C54.1419 16.6752 54.8421 17.5803 55.2836 18.5853C55.725 19.5964 55.9515 20.7848 55.9515 22.1445C55.9515 25.3297 54.9639 27.7658 52.9888 29.4374C51.0136 31.1161 48.1441 31.956 44.3917 31.956C43.0341 31.956 41.6716 31.8551 40.3149 31.6553C38.9432 31.4487 37.5862 31.1426 36.2533 30.739L36.8603 24.284C38.1295 24.8925 39.3654 25.3593 40.5575 25.6722C41.7544 25.9912 42.8914 26.1513 43.956 26.1513C45.3746 26.1513 46.5001 25.8679 47.3221 25.3002C48.1441 24.7324 48.558 23.9537 48.558 22.9783C48.558 21.7725 47.2384 20.6727 44.6011 19.6973C44.1085 19.5238 43.6191 19.3403 43.133 19.1469C40.5613 18.1592 38.7251 17.0074 37.6272 15.7007C36.5235 14.389 35.9717 12.7092 35.9717 10.6758C35.9717 7.77393 36.9431 5.53971 38.8802 3.97921C40.8154 2.41872 43.6021 1.63287 47.2222 1.63287C48.5523 1.63287 49.8386 1.72154 51.0631 1.88768C52.2885 2.05688 53.4806 2.32392 54.6214 2.67251ZM57.6222 9.83692H64.4857V31.2812H57.6222V9.83692ZM57.6222 0H64.4857V5.96474H57.6222V0ZM86.9401 13.8029C87.7232 12.3545 88.7231 11.2364 89.9314 10.4689C91.1397 9.69524 92.4869 9.30487 93.9531 9.30487C96.3097 9.30487 98.1136 10.1091 99.3609 11.7164C100.608 13.3248 101.238 15.6712 101.238 18.7392V31.2822H94.4687V20.264C94.4687 18.5965 94.209 17.3611 93.6962 16.5753C93.1834 15.7894 92.3823 15.3929 91.3119 15.3929C90.2083 15.3929 89.3263 15.8954 88.6689 16.9004C88.0124 17.9044 87.6813 19.2702 87.6813 20.9795V31.2812H80.8787V20.263C80.8787 18.5955 80.6246 17.3601 80.1175 16.5743C79.6104 15.7884 78.8093 15.3919 77.7171 15.3919C76.6134 15.3919 75.7305 15.9005 75.0683 16.9106C74.4062 17.9207 74.0693 19.2814 74.0693 20.9785V31.2802H67.2829V9.83692H73.4405V13.6836C74.2016 12.277 75.1844 11.1895 76.387 10.4383C77.5896 9.68301 78.914 9.30385 80.3601 9.30385C81.8938 9.30385 83.2296 9.69422 84.3599 10.4617C85.4959 11.2364 86.3569 12.3535 86.9363 13.808L86.9401 13.8029ZM110.551 28.2907V40H103.686V9.83692H109.845V13.9323C110.627 12.431 111.644 11.272 112.874 10.474C114.11 9.67078 115.506 9.26919 117.052 9.26919C119.75 9.26919 121.928 10.2915 123.573 12.3239C125.218 14.3574 126.044 17.0706 126.044 20.4526C126.044 23.8345 125.212 26.5824 123.545 28.6984C121.878 30.8144 119.734 31.8724 117.129 31.8724C115.739 31.8724 114.487 31.5707 113.393 30.9795C112.299 30.3832 111.344 29.4853 110.551 28.2907ZM114.826 14.7661C113.496 14.7661 112.448 15.2859 111.691 16.3154C110.931 17.3438 110.551 18.7687 110.551 20.5779C110.551 22.328 110.926 23.7162 111.671 24.7386C112.414 25.7609 113.431 26.2756 114.711 26.2756C116.002 26.2756 117.039 25.7446 117.801 24.6917C118.567 23.6337 118.953 22.1853 118.953 20.3527C118.953 18.6678 118.573 17.3142 117.823 16.297C117.068 15.2808 116.062 14.7661 114.826 14.7661ZM127.869 0H134.732V31.2812H127.869V0ZM157.033 20.9377V22.7286H142.98C143.119 24.1239 143.686 25.2115 144.674 25.9678C145.663 26.7241 146.997 27.1083 148.663 27.1083C149.667 27.1083 150.726 26.9606 151.841 26.665C152.956 26.3694 154.105 25.9148 155.284 25.3175V30.5728C154.151 31.0117 152.982 31.3379 151.793 31.5472C150.54 31.7657 149.272 31.8744 148.002 31.8724C144.354 31.8724 141.5 30.8378 139.449 28.781C137.398 26.718 136.37 23.8518 136.37 20.1865C136.37 16.8525 137.32 14.1922 139.213 12.224C141.104 10.2558 143.666 9.27021 146.882 9.27021C150.127 9.27021 152.632 10.2803 154.392 12.3015C156.15 14.3227 157.033 17.2072 157.033 20.9377ZM150.97 18.3896C150.832 16.9534 150.395 15.819 149.679 15.0025C148.956 14.181 148.034 13.7672 146.921 13.7672C145.818 13.7672 144.907 14.181 144.201 14.9975C143.495 15.819 143.059 16.9544 142.91 18.3906H150.97V18.3896ZM156.316 9.83692H164.215L167.241 16.5569L170.242 9.83692H177.712L171.29 20.1447L178 31.2812H170.015L166.743 24.0771L163.152 31.2812H155.572L162.622 20.1865L156.316 9.83692Z" fill="white"/>
<path fill-rule="evenodd" clip-rule="evenodd" d="M30.8193 34.4241C30.2983 34.4257 29.7819 34.3187 29.299 34.1091C28.8233 33.9039 28.3887 33.6033 28.0184 33.2234C27.641 32.8353 27.3413 32.3691 27.1375 31.8531C26.9337 31.337 26.8301 30.782 26.8329 30.2216C26.8329 29.6376 26.9385 29.0852 27.1488 28.5704C27.359 28.0547 27.6483 27.6072 28.0155 27.2311C28.3837 26.856 28.8118 26.5625 29.298 26.3535C29.7842 26.1446 30.2913 26.0386 30.8184 26.0386C31.3464 26.0386 31.8535 26.1446 32.3368 26.3515C32.8202 26.5584 33.2445 26.853 33.6089 27.227C33.9843 27.6149 34.2821 28.0804 34.4842 28.5954C34.6864 29.1104 34.7887 29.664 34.7849 30.2227C34.7913 30.9671 34.6095 31.6995 34.259 32.3422C33.9084 32.985 33.402 33.5141 32.7935 33.8736C32.1912 34.2377 31.5109 34.4274 30.8193 34.4241ZM27.6283 30.2206C27.6283 30.876 27.7691 31.4733 28.0498 32.0074C28.3314 32.5415 28.7177 32.9634 29.2067 33.2672C29.6957 33.5709 30.2333 33.7238 30.8155 33.7238C31.3997 33.7238 31.9363 33.5719 32.4234 33.2672C32.9068 32.9667 33.305 32.5313 33.5756 32.0074C33.8583 31.4614 34.0036 30.846 33.9971 30.2216C33.9971 29.7283 33.9162 29.2656 33.7554 28.8405C33.6001 28.424 33.3692 28.0447 33.0761 27.7244C32.7874 27.4077 32.4417 27.157 32.06 26.9875C31.6737 26.8122 31.2589 26.7245 30.8155 26.7245C30.3722 26.7245 29.9573 26.8122 29.5711 26.9855C29.188 27.1573 28.8408 27.4096 28.5502 27.7275C28.2565 28.0482 28.0253 28.4283 27.8699 28.8456C27.7071 29.2829 27.625 29.7499 27.6283 30.2206ZM29.9897 30.5417V32.6383H29.3075V27.8172H31.0477C31.5757 27.8172 31.9715 27.9252 32.2293 28.1413C32.4891 28.3584 32.6194 28.706 32.6194 29.181C32.6194 29.5897 32.5138 29.9026 32.3045 30.1197C32.0942 30.3368 31.8145 30.4714 31.4682 30.5223L32.7431 32.6393H31.9658L30.7746 30.5427H29.9897V30.5417ZM29.9897 29.9322H30.8155C31.1695 29.9322 31.4425 29.8822 31.6309 29.7823C31.8202 29.6814 31.9154 29.4643 31.9154 29.1341C31.9154 28.6611 31.5824 28.4247 30.9192 28.4247H29.9887V29.9322H29.9897ZM11.0897 1.63135H28.9251V9.04545H8.18031L13.1819 16.8897L7.92342 24.5403C3.34995 23.0746 0 19.4654 0 13.5108C0 7.55631 4.98258 1.63135 11.0897 1.63135ZM17.8353 31.9544H0V24.5403H20.7438L15.7431 16.6971L21.0007 9.04545C25.5751 10.5112 28.9241 14.1214 28.9241 20.0759C28.9241 26.0294 23.9434 31.9544 17.8353 31.9544Z" fill="#CC2229"/>
</svg>
