<svg width="70" height="70" viewBox="0 0 70 70" fill="none" xmlns="http://www.w3.org/2000/svg">
<g clip-path="url(#clip0_2_909)">
<path d="M0 4.81466V65.1854C0 67.8444 2.15559 70 4.81465 70H65.1854C67.8444 70 70 67.8444 70 65.1854V4.81466C70 2.15561 67.8444 1.52588e-05 65.1854 1.52588e-05H4.81465C2.15559 1.52588e-05 0 2.15561 0 4.81466Z" fill="url(#paint0_linear_2_909)"/>
<path d="M8.74902 17.4341H19.7478L32.5288 36.1697L26.3695 37.5393L21.2472 36.1697L8.74902 17.4341Z" fill="url(#paint1_linear_2_909)"/>
<path d="M8.17236 54.9033H19.1712L32.5284 36.1694H21.2468L8.17236 54.9033Z" fill="url(#paint2_linear_2_909)"/>
<path d="M24.8965 17.4341H35.8971L48.6762 36.1698L42.6326 37.6158L37.3822 36.1698L24.8965 17.4341Z" fill="url(#paint3_linear_2_909)"/>
<path d="M50.1881 17.4341H61.1886L51.1734 32.545L45.5264 24.2728L50.1881 17.4341Z" fill="url(#paint4_linear_2_909)"/>
<path d="M40.8652 17.4341H45.1036L43.0173 20.584L40.8652 17.4341Z" fill="url(#paint5_linear_2_909)"/>
<path d="M50.8283 54.903H61.8289L51.2125 39.6143L45.5264 47.5147L50.8283 54.903Z" fill="url(#paint6_linear_2_909)"/>
<path d="M40.2124 54.9035H45.7314L43.0048 51.0244L40.2124 54.9035Z" fill="url(#paint7_linear_2_909)"/>
<path d="M24.3203 54.9033H35.2053L48.6763 36.1694H37.3823L24.3203 54.9033Z" fill="url(#paint8_linear_2_909)"/>
</g>
<defs>
<linearGradient id="paint0_linear_2_909" x1="34.9991" y1="70" x2="34.9991" y2="1.52588e-05" gradientUnits="userSpaceOnUse">
<stop stop-color="#D1D5D8"/>
<stop offset="1" stop-color="#FDFCFD"/>
</linearGradient>
<linearGradient id="paint1_linear_2_909" x1="12.173" y1="14.8848" x2="22.9885" y2="35.2411" gradientUnits="userSpaceOnUse">
<stop stop-color="#73A2A8"/>
<stop offset="1" stop-color="#71B5BF"/>
</linearGradient>
<linearGradient id="paint2_linear_2_909" x1="11.6869" y1="52.5988" x2="22.3618" y2="32.9183" gradientUnits="userSpaceOnUse">
<stop stop-color="#699699"/>
<stop offset="1" stop-color="#73A4A6"/>
</linearGradient>
<linearGradient id="paint3_linear_2_909" x1="28.2528" y1="15.6351" x2="38.3351" y2="34.5393" gradientUnits="userSpaceOnUse">
<stop stop-color="#005661"/>
<stop offset="1" stop-color="#048293"/>
</linearGradient>
<linearGradient id="paint4_linear_2_909" x1="49.1148" y1="30.1279" x2="49.1148" y2="15.4368" gradientUnits="userSpaceOnUse">
<stop stop-color="#676F74"/>
<stop offset="1" stop-color="#3B444A"/>
</linearGradient>
<linearGradient id="paint5_linear_2_909" x1="39.0307" y1="15.4368" x2="39.0307" y2="18.4995" gradientUnits="userSpaceOnUse">
<stop stop-color="#93989C"/>
<stop offset="1" stop-color="#AAAFB2"/>
</linearGradient>
<linearGradient id="paint6_linear_2_909" x1="50.6844" y1="50.1849" x2="44.6442" y2="41.0091" gradientUnits="userSpaceOnUse">
<stop stop-color="#3B444A"/>
<stop offset="1" stop-color="#3B444A"/>
</linearGradient>
<linearGradient id="paint7_linear_2_909" x1="39.0182" y1="51.8657" x2="39.0182" y2="48.0933" gradientUnits="userSpaceOnUse">
<stop stop-color="#858B8F"/>
<stop offset="1" stop-color="#868D90"/>
</linearGradient>
<linearGradient id="paint8_linear_2_909" x1="27.6635" y1="52.1224" x2="37.7823" y2="33.3991" gradientUnits="userSpaceOnUse">
<stop stop-color="#08575C"/>
<stop offset="1" stop-color="#096166"/>
</linearGradient>
<clipPath id="clip0_2_909">
<rect width="70" height="70" fill="white"/>
</clipPath>
</defs>
</svg>
