<svg width="70" height="70" viewBox="0 0 70 70" fill="none" xmlns="http://www.w3.org/2000/svg">
<g clip-path="url(#clip0_2_900)">
<path fill-rule="evenodd" clip-rule="evenodd" d="M39.1776 30.9702C37.9576 30.7773 36.7047 30.8447 35.4737 30.8337C33.6453 30.8337 31.8169 30.8573 29.9979 30.8228C29.976 34.1314 29.976 37.4396 29.9979 40.7473C32.1932 40.7238 34.3792 40.7363 36.5698 40.7363C37.7318 40.7363 38.922 40.7802 40.0353 40.3631C40.7863 40.0944 41.4569 39.6395 41.9842 39.0411C42.5116 38.4427 42.8786 37.7203 43.0508 36.9415C43.3095 35.6321 43.1747 34.1989 42.4235 33.0698C41.7116 31.9408 40.465 31.2289 39.1776 30.9702Z" fill="#149F49"/>
<path fill-rule="evenodd" clip-rule="evenodd" d="M35 0C15.67 0 0 15.67 0 35C0 54.33 15.67 70 35 70C54.33 70 70 54.33 70 35C70 15.67 54.33 0 35 0ZM20.4167 41.1313C22.2796 41.1642 24.0625 39.9787 24.8309 38.2962C25.1881 37.5077 25.3433 36.6428 25.2825 35.7793C25.3609 34.1078 24.5486 32.4032 23.1263 31.489C22.3423 30.9245 21.3763 30.705 20.4276 30.6423C20.4167 29.3203 20.4276 28.011 20.4167 26.7016C21.7825 26.7581 23.1138 26.1261 24.0233 25.121C24.9025 24.1323 25.3537 22.8352 25.2778 21.5143C25.121 19.9117 24.1801 18.364 22.7265 17.6302C22.0255 17.224 21.2242 17.0766 20.4229 17.0437C20.3994 15.5979 20.4229 14.1647 20.412 12.7298C26.6326 12.7189 32.8533 12.7079 39.0849 12.7298C41.5578 12.8866 44.0652 13.7585 45.9046 15.463C47.1428 16.623 47.9742 18.1511 48.2755 19.8208C48.5468 21.8186 48.3665 23.9982 47.1575 25.6808C46.3907 26.8772 45.2162 27.746 43.9633 28.4014C45.9046 29.1463 47.6436 30.5121 48.6143 32.375C49.9471 34.9279 49.9126 38.1566 48.4794 40.6514C47.4962 42.4014 45.8481 43.7218 44.0087 44.4901C42.1694 45.2585 40.1246 45.5282 38.1378 45.5063H20.4182C20.4135 44.0432 20.4245 42.5865 20.4135 41.1313H20.4167ZM49.5833 57.2639C45.6207 57.3094 41.6472 57.2764 37.6658 57.2874C31.9187 57.2764 26.1732 57.3094 20.4261 57.2639C20.3916 55.7068 20.3916 54.1371 20.4261 52.5674C26.4319 52.522 32.4393 52.5674 38.4592 52.5565C42.1631 52.5674 45.8779 52.522 49.5802 52.5674C49.61 54.1371 49.61 55.7068 49.5755 57.2639H49.5833Z" fill="#149F49"/>
<path fill-rule="evenodd" clip-rule="evenodd" d="M35.9377 26.5324C36.9194 26.5104 37.9136 26.6233 38.8607 26.3176C40.4194 25.8769 41.8197 24.5785 42.0675 22.9305C42.2933 21.5756 42.0345 20.075 41.0858 19.0353C40.0807 17.9173 38.522 17.3763 37.0433 17.4327H29.9758C29.9868 20.4701 29.9868 23.495 29.9758 26.5277L35.9377 26.5324Z" fill="#149F49"/>
<path d="M38.1394 45.4996C40.1262 45.5215 42.1694 45.2737 44.0104 44.4834C45.8513 43.6931 47.4978 42.3947 48.481 40.6447C49.9143 38.1499 49.9488 34.9211 48.6159 32.3683C47.6452 30.5054 45.9062 29.1396 43.9649 28.3947C45.2194 27.7393 46.3923 26.8705 47.1591 25.6741C48.3681 23.9915 48.5484 21.8118 48.2772 19.8141C47.9758 18.1444 47.1444 16.6163 45.9062 15.4563C44.0637 13.7518 41.5547 12.8815 39.0865 12.7231C32.8549 12.7012 26.6342 12.7121 20.4136 12.7231C20.4246 14.1579 20.401 15.5912 20.4246 17.037C21.2259 17.0699 22.0272 17.2173 22.7281 17.6234C24.1833 18.3573 25.121 19.905 25.2794 21.5076C25.3553 22.8285 24.9041 24.1256 24.0249 25.1143C23.1091 26.1194 21.7778 26.7513 20.4183 26.6949C20.4293 28.0043 20.4183 29.3136 20.4293 30.6355C21.378 30.703 22.3486 30.9178 23.128 31.4823C24.5502 32.3965 25.3625 34.101 25.2841 35.7726C25.3449 36.636 25.1897 37.501 24.8325 38.2894C24.0641 39.972 22.2812 41.1575 20.4183 41.1246C20.4293 42.5798 20.4183 44.0365 20.4183 45.4933L38.1394 45.4996ZM43.0507 36.9409C42.8785 37.7197 42.5115 38.4421 41.9841 39.0405C41.4568 39.6389 40.7862 40.0937 40.0352 40.3625C38.9297 40.7796 37.7317 40.7357 36.5697 40.7357C34.3744 40.7357 32.1884 40.7231 29.9978 40.7466C29.9759 37.438 29.9759 34.1298 29.9978 30.8221C31.8168 30.8566 33.6452 30.8331 35.4736 30.8331C36.7046 30.8441 37.9575 30.7767 39.1775 30.9695C40.4649 31.2283 41.7068 31.9402 42.4172 33.0692C43.1746 34.1983 43.3094 35.6315 43.0507 36.9409ZM29.9759 17.4321H37.0433C38.522 17.3757 40.0807 17.9167 41.0859 19.0347C42.0346 20.0744 42.2933 21.575 42.0675 22.9299C41.8197 24.578 40.4194 25.8763 38.8607 26.317C37.9199 26.6228 36.9194 26.5099 35.9378 26.5318H29.979C29.9868 23.4944 29.9868 20.4695 29.9759 17.4321Z" fill="white"/>
<path d="M38.4548 52.5561C32.438 52.567 26.4306 52.5216 20.4216 52.567C20.3871 54.1351 20.3871 55.7032 20.4216 57.2635C26.1687 57.309 31.9142 57.276 37.6613 57.287C41.6365 57.276 45.61 57.309 49.5789 57.2635C49.6134 55.7064 49.6134 54.1367 49.5789 52.567C45.8735 52.5216 42.1586 52.567 38.4548 52.5561Z" fill="#73C692"/>
</g>
<defs>
<clipPath id="clip0_2_900">
<rect width="70" height="70" fill="white"/>
</clipPath>
</defs>
</svg>
