<svg width="178" height="84" viewBox="0 0 178 84" fill="none" xmlns="http://www.w3.org/2000/svg">
<path d="M0 59.4106H11.4409C14.2804 59.4106 16.4276 60.1243 17.8829 61.5516C19.0091 62.657 19.572 64.027 19.572 65.6613V65.7305C19.572 66.4211 19.4849 67.0314 19.3095 67.5607C19.1345 68.0907 18.9006 68.5678 18.6083 68.9937C18.3168 69.42 17.9778 69.7941 17.5924 70.116C17.2068 70.4387 16.7924 70.7152 16.3486 70.9449C17.7759 71.4749 18.8995 72.194 19.7187 73.1035C20.5375 74.0134 20.9475 75.2739 20.9475 76.8852V76.954C20.9475 78.0594 20.7305 79.0262 20.2963 79.8554C19.8621 80.6839 19.24 81.3748 18.43 81.9275C17.62 82.4802 16.646 82.8943 15.5077 83.1708C14.3694 83.447 13.1079 83.5849 11.7236 83.5849H0V59.4106ZM10.2971 69.1838C11.4964 69.1838 12.4487 68.9829 13.1535 68.5796C13.8587 68.1767 14.2113 67.5261 14.2113 66.6285V66.5593C14.2113 65.7539 13.9054 65.1382 13.2943 64.7119C12.6829 64.2859 11.8012 64.0727 10.6497 64.0727H5.28935V69.1838H10.2971ZM11.7431 78.9232C12.9421 78.9232 13.8819 78.7107 14.5643 78.2844C15.2459 77.8585 15.5872 77.1963 15.5872 76.2983V76.2295C15.5872 75.4237 15.2695 74.785 14.6349 74.3126C13.9999 73.8412 12.9774 73.605 11.5666 73.605H5.28935V78.9235H11.7431V78.9232Z" fill="#F3BA2F"/>
<path d="M27.7612 59.4121H33.1925V83.5871H27.7612V59.4121Z" fill="#F3BA2F"/>
<path d="M41.4185 59.4121H46.4254L57.9928 74.2971V59.4121H63.3531V83.5871H58.7337L46.7784 68.2189V83.5871H41.4185V59.4121Z" fill="#F3BA2F"/>
<path d="M79.7959 59.2378H84.8032L95.3834 83.5852H89.7054L87.4483 78.1634H77.0096L74.7529 83.5852H69.2153L79.7959 59.2378ZM85.5088 73.466L82.2288 65.6267L78.9498 73.466H85.5088Z" fill="#F3BA2F"/>
<path d="M101.247 59.4121H106.255L117.821 74.2971V59.4121H123.182V83.5871H118.562L106.607 68.2189V83.5871H101.247V59.4121Z" fill="#F3BA2F"/>
<path d="M142.727 84.0001C140.916 84.0001 139.235 83.6774 137.684 83.0333C136.132 82.3891 134.792 81.5081 133.663 80.3912C132.535 79.2746 131.653 77.9564 131.019 76.4369C130.384 74.9171 130.066 73.294 130.066 71.5671V71.4983C130.066 69.7715 130.384 68.1544 131.019 66.6461C131.653 65.1382 132.535 63.8142 133.663 62.6746C134.791 61.535 136.144 60.6367 137.718 59.9806C139.293 59.3246 141.034 58.9966 142.938 58.9966C144.089 58.9966 145.141 59.0891 146.094 59.2728C147.046 59.4575 147.91 59.7102 148.686 60.0325C149.462 60.3551 150.179 60.7465 150.838 61.2066C151.495 61.6675 152.107 62.1738 152.671 62.7265L149.216 66.6288C148.25 65.7773 147.27 65.109 146.271 64.6258C145.271 64.1426 144.149 63.9006 142.903 63.9006C141.868 63.9006 140.91 64.0965 140.029 64.4879C139.147 64.8793 138.389 65.4201 137.754 66.1107C137.119 66.8013 136.626 67.6017 136.272 68.5109C135.921 69.4208 135.744 70.3933 135.744 71.4292V71.498C135.744 72.5339 135.921 73.5129 136.272 74.4332C136.626 75.3546 137.113 76.1601 137.736 76.8507C138.359 77.5413 139.112 78.0886 139.993 78.4915C140.875 78.8947 141.845 79.0956 142.903 79.0956C144.314 79.0956 145.506 78.8425 146.482 78.3359C147.457 77.83 148.428 77.1391 149.391 76.2638L152.847 79.6829C152.213 80.3508 151.553 80.9496 150.873 81.4785C150.191 82.0086 149.444 82.463 148.633 82.8432C147.822 83.2227 146.934 83.5111 145.971 83.7063C145.006 83.9018 143.925 84.0001 142.727 84.0001Z" fill="#F3BA2F"/>
<path d="M159.238 59.4121H177.823V64.1437H164.598V69.0478H176.236V73.779H164.598V78.8559H178V83.5871H159.238V59.4121Z" fill="#F3BA2F"/>
<path d="M80.4351 19.1564L89.4755 10.3036L98.5206 19.1611L103.781 14.0097L89.4755 0L75.1748 14.005L80.4351 19.1564Z" fill="#F3BA2F"/>
<path d="M76.7207 22.7934L71.4604 17.6421L66.2 22.7937L71.4602 27.945L76.7207 22.7934Z" fill="#F3BA2F"/>
<path d="M80.435 26.4301L89.4754 35.283L98.5201 26.4258L103.783 31.5743L103.781 31.5772L89.4754 45.5865L75.1743 31.5819L75.167 31.5747L80.435 26.4301Z" fill="#F3BA2F"/>
<path d="M107.492 27.948L112.752 22.7964L107.492 17.6451L102.232 22.7966L107.492 27.948Z" fill="#F3BA2F"/>
<path d="M94.8104 22.7914H94.8126L89.4747 17.564L85.53 21.4271H85.5296L85.0766 21.871L84.1416 22.7867L84.1343 22.7939L84.1416 22.8014L89.4747 28.0242L94.8126 22.7968L94.8152 22.7939L94.8104 22.7914Z" fill="#F3BA2F"/>
</svg>
