<svg width="177" height="40" viewBox="0 0 177 40" fill="none" xmlns="http://www.w3.org/2000/svg">
<path d="M61.7179 28.9498L64.8661 17.2309H64.948L68.0963 28.9498H70.5072L74.8142 13.0014H71.9468L69.2081 24.8839H69.1028L66.1301 13.0014H63.6841L60.7113 24.8839H60.6177L57.8557 13.0014H55L59.2952 28.9498H61.7179Z" fill="white"/>
<path d="M80.3448 16.3897C79.1588 16.3897 78.1562 16.6468 77.337 17.1608C76.5177 17.6749 75.8935 18.3721 75.4644 19.2523C75.0431 20.1324 74.8324 21.1334 74.8324 22.255V23.2481C74.8324 24.4009 75.0431 25.4252 75.4644 26.321C75.8857 27.209 76.506 27.9061 77.3253 28.4124C78.1523 28.9109 79.1588 29.1602 80.3448 29.1602C81.5308 29.1602 82.5295 28.9109 83.3409 28.4124C84.1602 27.9061 84.7805 27.209 85.2018 26.321C85.6231 25.4252 85.8338 24.4009 85.8338 23.2481V22.255C85.8338 21.1256 85.6231 20.1208 85.2018 19.2406C84.7805 18.3604 84.1602 17.6671 83.3409 17.1608C82.5295 16.6468 81.5308 16.3897 80.3448 16.3897ZM80.3448 18.4694C80.9924 18.4694 81.5269 18.633 81.9482 18.9602C82.3695 19.2795 82.6855 19.7274 82.8962 20.3038C83.1147 20.8724 83.2239 21.5345 83.2239 22.2901V23.2364C83.2239 23.9764 83.1186 24.6346 82.9079 25.211C82.6972 25.7796 82.3773 26.2314 81.9482 26.5663C81.5269 26.9013 80.9924 27.0687 80.3448 27.0687C79.6972 27.0687 79.1588 26.9013 78.7297 26.5663C78.3006 26.2314 77.9807 25.7796 77.77 25.211C77.5594 24.6346 77.454 23.9764 77.454 23.2364V22.2901C77.454 21.5423 77.5594 20.8841 77.77 20.3155C77.9807 19.7391 78.3006 19.2873 78.7297 18.9602C79.1666 18.633 79.705 18.4694 80.3448 18.4694Z" fill="white"/>
<path d="M87.9353 28.9498H90.5686V21.6358C90.5686 21.0827 90.6544 20.5842 90.8261 20.1402C91.0055 19.6962 91.2981 19.3457 91.7038 19.0887C92.1096 18.8238 92.6596 18.6914 93.354 18.6914C93.5725 18.6914 93.7832 18.6992 93.986 18.7148C94.1889 18.7304 94.3488 18.7537 94.4659 18.7849V16.4949C94.341 16.4715 94.2045 16.4559 94.0563 16.4481C93.9158 16.4326 93.7598 16.4248 93.5881 16.4248C93.0185 16.4248 92.5309 16.5221 92.1252 16.7169C91.7194 16.9038 91.3917 17.1375 91.1421 17.4179C90.9002 17.6983 90.7285 17.967 90.6271 18.2241H90.5335V16.6H87.9353V28.9498Z" fill="white"/>
<path d="M96.2397 28.9498H98.8379V12.1602H96.2397V28.9498Z" fill="white"/>
<path d="M105.82 16.4364C104.813 16.4364 103.947 16.6818 103.222 17.1725C102.504 17.6555 101.95 18.3331 101.56 19.2055C101.177 20.0701 100.986 21.0788 100.986 22.2316V23.3065C100.986 24.4749 101.173 25.4953 101.548 26.3677C101.922 27.2401 102.469 27.9178 103.186 28.4007C103.904 28.8758 104.782 29.1134 105.82 29.1134C106.241 29.1134 106.635 29.0667 107.002 28.9732C107.369 28.8797 107.704 28.7473 108.008 28.576C108.313 28.3968 108.582 28.1787 108.816 27.9217C109.058 27.6646 109.257 27.3803 109.413 27.0687H109.506V28.9498H112.034V12.1602H109.436V18.3643H109.343C109.147 17.9904 108.878 17.6594 108.535 17.3712C108.199 17.0752 107.798 16.8454 107.33 16.6818C106.869 16.5182 106.366 16.4364 105.82 16.4364ZM106.475 18.5746C107.092 18.5746 107.622 18.7265 108.067 19.0303C108.512 19.334 108.855 19.7663 109.097 20.3272C109.339 20.888 109.46 21.554 109.46 22.3251V23.2481C109.46 24.0504 109.339 24.7281 109.097 25.2811C108.863 25.8342 108.523 26.2587 108.079 26.5547C107.634 26.8429 107.107 26.987 106.499 26.987C105.945 26.987 105.453 26.8506 105.024 26.578C104.595 26.2976 104.255 25.8809 104.006 25.3279C103.756 24.767 103.631 24.0699 103.631 23.2364V22.3251C103.631 21.4839 103.752 20.7867 103.994 20.2337C104.244 19.6729 104.583 19.2561 105.012 18.9835C105.449 18.7109 105.937 18.5746 106.475 18.5746Z" fill="white"/>
<path d="M121.492 28.9498V13.0014H118.836V28.9498H121.492Z" fill="white"/>
<path d="M124.226 28.9498H126.812V21.589C126.812 21.0438 126.91 20.5531 127.105 20.1169C127.308 19.6729 127.608 19.3224 128.006 19.0653C128.412 18.8005 128.919 18.6681 129.527 18.6681C130.042 18.6681 130.503 18.7693 130.908 18.9718C131.314 19.1744 131.634 19.4859 131.868 19.9065C132.102 20.3272 132.219 20.8724 132.219 21.5423V28.9498H134.806V21.0165C134.806 19.5132 134.4 18.3721 133.589 17.5931C132.777 16.8064 131.736 16.4131 130.464 16.4131C129.793 16.4131 129.211 16.5182 128.72 16.7285C128.236 16.9311 127.842 17.1803 127.538 17.4763C127.234 17.7723 127.011 18.0566 126.871 18.3292H126.777V16.6H124.226V28.9498Z" fill="white"/>
<path d="M139.763 28.9498H142.665L147.019 16.6H144.362L141.273 26.1808H141.179L138.335 16.6H135.573L139.763 28.9498Z" fill="white"/>
<path d="M152.796 29.1602C153.56 29.1602 154.235 29.0589 154.82 28.8564C155.405 28.6539 155.905 28.3773 156.318 28.0268C156.74 27.6763 157.075 27.2752 157.325 26.8234C157.575 26.3716 157.746 25.8965 157.84 25.398H155.37C155.261 25.7485 155.089 26.0561 154.855 26.321C154.629 26.578 154.344 26.7767 154.001 26.9169C153.658 27.0493 153.268 27.1155 152.831 27.1155C151.949 27.1155 151.247 26.8 150.724 26.1691C150.201 25.5304 149.94 24.693 149.94 23.6571V23.365H157.98V22.1849C157.98 21.0165 157.77 20 157.348 19.1354C156.927 18.2708 156.318 17.597 155.523 17.1141C154.734 16.6312 153.79 16.3897 152.69 16.3897C151.606 16.3897 150.666 16.6234 149.87 17.0907C149.082 17.5581 148.469 18.2163 148.032 19.0653C147.595 19.9143 147.377 20.9153 147.377 22.0681V23.3182C147.377 24.5334 147.599 25.5771 148.044 26.4495C148.489 27.3219 149.117 27.9918 149.928 28.4591C150.74 28.9265 151.695 29.1602 152.796 29.1602ZM149.94 21.554C149.94 21.5462 149.94 21.5384 149.94 21.5306C149.94 20.9464 150.053 20.4206 150.279 19.9533C150.513 19.4781 150.837 19.1004 151.251 18.82C151.664 18.5395 152.148 18.3993 152.702 18.3993C153.256 18.3993 153.736 18.5395 154.141 18.82C154.555 19.1004 154.875 19.4781 155.101 19.9533C155.327 20.4206 155.441 20.9464 155.441 21.5306C155.441 21.5384 155.441 21.5462 155.441 21.554H149.94Z" fill="white"/>
<path d="M159.555 20.2103C159.555 20.9581 159.738 21.5618 160.105 22.0213C160.472 22.4809 160.967 22.8392 161.592 23.0962C162.216 23.3455 162.902 23.5519 163.651 23.7155C164.205 23.8167 164.712 23.9297 165.173 24.0543C165.641 24.1712 166.019 24.3425 166.308 24.5684C166.597 24.7865 166.741 25.1098 166.741 25.5382C166.741 25.8419 166.655 26.1224 166.484 26.3794C166.312 26.6364 166.047 26.8429 165.688 26.9986C165.337 27.1544 164.884 27.2323 164.33 27.2323C163.846 27.2323 163.425 27.1622 163.066 27.022C162.715 26.8818 162.434 26.6871 162.224 26.4378C162.021 26.1808 161.896 25.8848 161.849 25.5498H159.321C159.321 26.2898 159.516 26.9285 159.906 27.466C160.304 28.0035 160.866 28.4202 161.592 28.7162C162.317 29.0122 163.175 29.1602 164.166 29.1602C165.204 29.1602 166.105 29.0083 166.87 28.7045C167.634 28.3929 168.224 27.9411 168.637 27.3492C169.058 26.7572 169.269 26.0445 169.269 25.211C169.269 24.4321 169.086 23.8167 168.719 23.365C168.36 22.9054 167.872 22.5549 167.256 22.3134C166.64 22.072 165.945 21.885 165.173 21.7526C164.822 21.6903 164.463 21.6202 164.096 21.5423C163.729 21.4644 163.39 21.3631 163.078 21.2385C162.774 21.1139 162.524 20.9503 162.329 20.7478C162.142 20.5453 162.048 20.2804 162.048 19.9533C162.048 19.4314 162.251 19.0303 162.657 18.7498C163.07 18.4616 163.608 18.3175 164.272 18.3175C164.833 18.3175 165.278 18.411 165.606 18.598C165.934 18.7771 166.172 19.0069 166.32 19.2873C166.468 19.5677 166.554 19.852 166.577 20.1402H168.918C168.918 19.408 168.739 18.7615 168.38 18.2007C168.021 17.6399 167.502 17.1998 166.823 16.8804C166.144 16.5533 165.317 16.3897 164.342 16.3897C163.507 16.3897 162.723 16.5221 161.989 16.787C161.264 17.0518 160.675 17.4646 160.222 18.0254C159.777 18.5863 159.555 19.3146 159.555 20.2103Z" fill="white"/>
<path d="M171.967 16.6H170.224V18.6797H171.932V25.4797C171.932 26.2976 172.042 26.9714 172.26 27.501C172.486 28.0229 172.876 28.4085 173.43 28.6578C173.984 28.907 174.765 29.0316 175.771 29.0316C176.036 29.0316 176.282 29.0199 176.508 28.9966C176.735 28.981 176.899 28.9654 177 28.9498V26.9636C176.93 26.9714 176.844 26.9792 176.743 26.987C176.641 26.987 176.532 26.987 176.415 26.987C175.713 26.987 175.221 26.8701 174.94 26.6364C174.659 26.395 174.519 25.9393 174.519 25.2694V18.6797H176.93V16.6H174.519V13.5973H171.967V16.6Z" fill="white"/>
<rect width="40" height="40" rx="10" fill="url(#paint0_linear_2_562)"/>
<rect x="8" y="20" width="6" height="12" rx="1" fill="white"/>
<rect x="17" y="14" width="6" height="18" rx="1" fill="white"/>
<rect x="26" y="8" width="6" height="24" rx="1" fill="white"/>
<defs>
<linearGradient id="paint0_linear_2_562" x1="10.9714" y1="27.6" x2="33.0286" y2="9.14286" gradientUnits="userSpaceOnUse">
<stop stop-color="#923BEC"/>
<stop offset="1" stop-color="#AB68F0"/>
</linearGradient>
</defs>
</svg>
