<svg width="70" height="70" viewBox="0 0 70 70" fill="none" xmlns="http://www.w3.org/2000/svg">
<g clip-path="url(#clip0_2_921)">
<path fill-rule="evenodd" clip-rule="evenodd" d="M12.8596 4.30066L0.0526523 31.253C0.00391812 31.3533 -0.0115254 31.4665 0.00858011 31.5762C0.0286857 31.6859 0.0832856 31.7862 0.164395 31.8626L34.7529 65.07C34.8512 65.1644 34.982 65.2171 35.1182 65.2171C35.2543 65.2171 35.3851 65.1644 35.4834 65.07L70.0719 31.8647C70.153 31.7883 70.2076 31.688 70.2277 31.5783C70.2478 31.4686 70.2324 31.3554 70.1837 31.2551L57.3767 4.30274C57.3354 4.21222 57.2689 4.13554 57.1852 4.08186C57.1016 4.02818 57.0043 3.99978 56.9049 4.00004H13.3356C13.2357 3.9988 13.1377 4.02652 13.0532 4.07986C12.9688 4.1332 12.9015 4.20989 12.8596 4.30066Z" fill="#50AF95"/>
<path fill-rule="evenodd" clip-rule="evenodd" d="M39.5612 34.0209C39.3129 34.0396 38.0299 34.1163 35.1681 34.1163C32.8918 34.1163 31.2757 34.0479 30.7087 34.0209C21.9121 33.6332 15.3461 32.099 15.3461 30.2621C15.3461 28.4252 21.9121 26.893 30.7087 26.4991V32.4929C31.284 32.5344 32.9311 32.6318 35.2074 32.6318C37.9389 32.6318 39.3067 32.5178 39.5529 32.495V26.5033C48.3309 26.8951 54.8824 28.4293 54.8824 30.2621C54.8824 32.0949 48.333 33.6291 39.5529 34.0188L39.5612 34.0209ZM39.5612 25.8834V20.5198H51.8115V12.3408H18.4584V20.5198H30.7066V25.8813C20.7512 26.3395 13.2644 28.3153 13.2644 30.683C13.2644 33.0506 20.7512 35.0244 30.7066 35.4846V52.672H39.5591V35.4784C49.4918 35.0202 56.9662 33.0465 56.9662 30.6809C56.9662 28.3153 49.498 26.3415 39.5591 25.8813L39.5612 25.8834Z" fill="white"/>
</g>
<defs>
<clipPath id="clip0_2_921">
<rect width="70" height="70" fill="white"/>
</clipPath>
</defs>
</svg>
